# xmcd database file
#
# Track frame offsets:
# 150
# 11815
# 22811
# 31504
# 42418
# 53087
# 61670
# 70283
# 81902
# 90802
# 99914
# 109937
# 120330
# 132537
# 143046
# 155340
#
# Disc length: 2231 seconds
#
# Revision: 0
# Processed by: cddbd v1.5.2PL0 Copyright (c) Steve Scherf et al.
# Submitted via: CD-Runner 2006.50
#
DISCID=bd08b510
DTITLE=Don Gibson - Anthology - Disc 2
DYEAR=1900
DGENRE=Country
TTITLE0=Sea Of Heartbreak
TTITLE1=(I'd Be) A Legend In My Time
TTITLE2=Sweet Dreams
TTITLE3=The Same Street
TTITLE4=Lonesome Number One
TTITLE5=Camptown Races
TTITLE6=Baby We're Really In Love
TTITLE7=I Can Mend Your Broken Heart
TTITLE8=Head Over Heels In Love With You
TTITLE9=Watch Where You're Going
TTITLE10=Funny, Familiar Forgotten Feelings
TTITLE11=(Yes) I'm Hurting
TTITLE12=When I Stop Dreaming
TTITLE13=Lost Highway
TTITLE14=Rings Of Gold with Dottie West
TTITLE15=There's A Story (Goin' Round) with Dottie West
EXTD=
EXTT0=
EXTT1=
EXTT2=
EXTT3=
EXTT4=
EXTT5=
EXTT6=
EXTT7=
EXTT8=
EXTT9=
EXTT10=
EXTT11=
EXTT12=
EXTT13=
EXTT14=
EXTT15=
PLAYORDER=
